<?xml version="1.0" encoding="utf-8"?>
<!-- Generator: Adobe Illustrator 22.0.1, SVG Export Plug-In . SVG Version: 6.00 Build 0)  -->
<svg version="1.1" id="Layer_1" xmlns="http://www.w3.org/2000/svg" xmlns:xlink="http://www.w3.org/1999/xlink" x="0px" y="0px"
	 viewBox="0 0 2000 1200" style="enable-background:new 0 0 2000 1200;" xml:space="preserve">
<style type="text/css">
	.st0{fill:none;stroke:#000000;stroke-width:40;stroke-miterlimit:10;}
</style>
<g>
	<path class="st0" d="M905.5,444.5c3.6,44.8-17.1,93.4-42.7,131.6c-26.1,38.9-57,67.5-85.2,88.4c-28.7,20.9-54.5,34.2-81.8,43.9
		c-27.8,9.1-57.1,14.5-104.1,6.1c-42.9-5.2-90.9-29-129.4-55c-39.3-26.4-69.1-54.9-93.4-79.1c-24.3-24.6-43.1-45-60.3-64.5
		c-16.5-20-31.4-39.2-30.8-71.3c-3.1-28.9,16-62.3,40.3-90c24.7-28.3,54.5-50.8,82.7-71.8c28.6-20.9,55.6-40.1,84.3-60.5
		c29.2-19.6,60.1-40.3,106.6-47.7c42.8-11,90.2-0.5,128.3,16.4c38.9,17.3,68.5,41,92.8,65.3c24.3,24.6,43.4,49.7,61,78.4
		C890.5,363.6,905.9,396.2,905.5,444.5z"/>
</g>
<ellipse class="st0" cx="645.5" cy="411.7" rx="178.3" ry="185.8"/>
<ellipse class="st0" cx="1343.9" cy="419.4" rx="178.3" ry="185.8"/>
<path class="st0" d="M1615.8,490c-15.2,48.9-40.9,96.9-67.9,137.7c-27.1,41-60.5,135.3-179.6,135.3
	c-191.3,0.1-227.5-128.4-252.9-159.5c-25-31.3-49.8-63.9-65.8-100.8c-33.8-73.1-16.6-139.2,34.4-191.6
	c25.6-26.7,59.9-51.2,101.6-73.2c41.7-21.7,90.9-40.9,147-49.8c55-10.2,109.1-6.2,153.7,6.8c44.9,13.1,80.2,35.2,104.8,62.9
	C1639.8,314.4,1647.6,390.6,1615.8,490z"/>
<path class="st0" d="M153.7,359.8c0,0,211.8-258.8,485.2-307s334,147.2,334,147.2"/>
<path class="st0" d="M1842.9,278.8c-96.6-134.3-285.7-272.1-584.7-214.2c-92.7,18-103,96.2-103,96.2s-31,161.6-57.5,273.5
	c-18.8,79.6-36,118.6-46.5,185.8c-9.5,60.8,63.1,104.1,104.8,142.4c41.7,38.3,64.3,103.7,47.3,147.7c-16.9,44-91.3,68.8-181.5,48.5
	S865.3,848.8,865.3,848.8"/>
<path class="st0" d="M132.7,569.8c0,0,21.8,168.8,195,228c209,71.5,182.5,72.8,309,168s310.6,154.6,532.1,127.2
	c275-34.1,202.2-187.1,466-178.1c194,6.6,190-309.7,190-309.7"/>
</svg>
